:SAMPLES-PER-SECOND 30
:FULLY-SPECIFIED
:DEGREES
265
root  -9.58387 34.4448 -16.9148 -172.975 -0.423141 -178.858
RightUpLeg  -7.4318 -15.4333 5.18934
RightLeg  6.67452 -0.315139 -0.0153412
RightFoot  0.919946 0.00291822 0.129899
RightToes  -18.9197 -0.0765499 -0.165751
Spine  -1.73023 2.2093 0.498884
Spine1  -3.59899 4.79421 1.32297
HEad  -62.1086 0.62862 3.9749
LeftShoulder1  -1.94126e-019 -3.10601e-018 -2.51263e-017
LeftArm  -10.6167 20.9141 -82.2387
LeftForeArm  34.9322 -17.0507 -2.96539
LeftHand  -0.316889 -1.18917 5.73457
RightShoulder  -4.96962e-017 0 -2.36833e-017
RightArm  -32.6192 -10.3336 76.494
RightForeArm  64.044 2.06611 0.319593
RightHand  0.0211909 -5.82378 -11.1227
LeftUpLeg  -17.9731 2.73048 3.83097
LeftLeg  31.9956 10.7077 5.71146
LeftFoot  -6.08649 -0.0706355 -1.16702
LeftToes  -19.14 1.48347e-006 1.01831e-007
266
root  -9.76224 34.4082 -16.954 -172.814 -0.913071 -179.091
RightUpLeg  -8.22838 -15.2111 4.76181
RightLeg  8.13291 -1.14142 -0.0876315
RightFoot  0.160936 0.000285824 0.112298
RightToes  -18.499 -0.0769649 -0.166326
Spine  -1.83285 2.32541 0.500909
Spine1  -3.79735 4.83723 1.34229
HEad  -62.6398 -0.356228 3.67149
LeftShoulder1  -1.94126e-019 -3.10601e-018 -2.51263e-017
LeftArm  -10.7187 21.2304 -82.3745
LeftForeArm  35.7565 -18.3655 -3.20385
LeftHand  -0.318886 -1.25668 5.71693
RightShoulder  -4.96962e-017 0 -2.36833e-017
RightArm  -36.5541 -16.0229 76.3182
RightForeArm  65.359 1.03299 0.150912
RightHand  0.592925 -10.4494 -14.2238
LeftUpLeg  -17.4491 -1.74717 4.62356
LeftLeg  30.8197 14.3801 7.24997
LeftFoot  -5.64166 -0.0829131 -1.52107
LeftToes  -16.2589 1.48347e-006 1.01831e-007
267
root  -9.97008 34.3923 -17.0096 -172.377 -1.63509 -179.314
RightUpLeg  -8.78969 -15.4885 4.33859
RightLeg  8.62959 -1.5978 -0.137055
RightFoot  -0.0406066 -0.000665519 0.10185
RightToes  -18.7936 -0.0774374 -0.167053
Spine  -2.10368 1.81881 0.63179
Spine1  -4.30886 3.63912 1.66381
HEad  -63.4946 0.219708 3.37609
LeftShoulder1  -1.94126e-019 -3.10601e-018 -2.51263e-017
LeftArm  -11.3307 22.7237 -82.4858
LeftForeArm  34.1437 -19.0559 -3.23392
LeftHand  -0.351667 -1.29035 6.26242
RightShoulder  -4.96962e-017 0 -2.36833e-017
RightArm  -41.1135 -21.1946 76.2316
RightForeArm  62.0543 2.64705 0.433204
RightHand  0.267007 -8.00682 -12.936
LeftUpLeg  -16.4321 -6.18085 5.30841
LeftLeg  26.8245 16.245 6.81456
LeftFoot  -3.0711 -0.0284503 -0.899718
LeftToes  -14.7458 1.48347e-006 1.01831e-007
268
root  -10.2114 34.3744 -17.0823 -171.908 -2.17325 -179.633
RightUpLeg  -9.53159 -15.7024 3.76776
RightLeg  9.5074 -1.93362 -0.196005
RightFoot  -0.503965 -0.00222559 0.106825
RightToes  -18.9403 -0.0780155 -0.168247
Spine  -2.4393 1.08041 0.808671
Spine1  -4.96115 2.01974 2.06708
HEad  -64.0075 1.65239 2.99446
LeftShoulder1  -1.94126e-019 -3.10601e-018 -2.51263e-017
LeftArm  -11.7594 24.6263 -82.7253
LeftForeArm  31.5483 -18.3772 -3.00349
LeftHand  -0.350904 -1.08046 6.4342
RightShoulder  -4.96962e-017 0 -2.36833e-017
RightArm  -39.8554 -26.1544 75.9062
RightForeArm  51.1189 6.43587 1.11083
RightHand  -0.0901584 -4.16562 -6.89314
LeftUpLeg  -15.0707 -8.53234 5.4736
LeftLeg  21.654 16.4756 5.25325
LeftFoot  -0.0601003 -6.92344e-005 0.0294065
LeftToes  -20.1 1.48347e-006 1.01831e-007
269
root  -10.4473 34.3505 -17.1768 -171.636 -2.37756 -179.881
RightUpLeg  -9.99581 -15.587 3.19333
RightLeg  10.2832 -2.31913 -0.267094
RightFoot  -0.882182 -0.00373289 0.117131
RightToes  -19.1323 -0.0787469 -0.169853
Spine  -2.66442 0.404552 0.909709
Spine1  -5.40137 0.549883 2.3171
HEad  -64.2386 3.22558 2.72623
LeftShoulder1  -1.94126e-019 -3.10601e-018 -2.51263e-017
LeftArm  -11.9287 25.9412 -82.9809
LeftForeArm  30.3007 -16.5043 -2.6594
LeftHand  -0.351494 -0.881554 6.63219
RightShoulder  -4.96962e-017 0 -2.36833e-017
RightArm  -38.0892 -29.4969 75.5947
RightForeArm  43.4949 9.0759 1.5066
RightHand  -0.100869 -3.10221 -4.40083
LeftUpLeg  -13.8999 -5.22016 4.87007
LeftLeg  18.4877 13.3073 3.47898
LeftFoot  0.460796 6.00707e-005 0.146628
LeftToes  -21.7695 1.48347e-006 1.01831e-007
270
root  -10.6979 34.3466 -17.2753 -171.624 -2.48997 179.659
RightUpLeg  -10.3256 -15.8667 2.31357
RightLeg  11.3224 -2.21849 -0.296464
RightFoot  -1.22758 -0.00490961 0.128159
RightToes  -19.7105 -0.0796795 -0.171589
Spine  -2.8167 -0.185338 0.879583
Spine1  -5.69483 -0.705357 2.31547
HEad  -63.9661 4.49263 2.67597
LeftShoulder1  -1.94126e-019 -3.10601e-018 -2.51263e-017
LeftArm  -12.7126 26.4323 -83.353
LeftForeArm  30.6946 -13.063 -2.14588
LeftHand  -0.340028 -0.775924 6.51995
RightShoulder  -4.96962e-017 0 -2.36833e-017
RightArm  -37.6419 -31.2582 75.4392
RightForeArm  42.9805 10.0418 1.57866
RightHand  -0.112082 -3.65884 -6.48011
LeftUpLeg  -12.4811 -1.78644 3.93044
LeftLeg  15.7217 10.0901 2.13775
LeftFoot  1.21136 -0.00096744 0.25306
LeftToes  -22.4671 1.48347e-006 1.01831e-007
271
root  -10.9236 34.3551 -17.3248 -171.445 -2.72365 179.338
RightUpLeg  -10.6953 -15.5507 1.6696
RightLeg  11.9699 -2.84075 -0.412572
RightFoot  -1.33943 -0.0065474 0.150578
RightToes  -19.7954 -0.0808614 -0.173706
Spine  -3.05326 -0.679497 0.829353
Spine1  -6.14933 -1.73846 2.25543
HEad  -63.736 5.2602 3.02388
LeftShoulder1  -1.94126e-019 -3.10601e-018 -2.51263e-017
LeftArm  -14.0012 26.9142 -83.64
LeftForeArm  31.5948 -11.2303 -1.93711
LeftHand  -0.336733 -0.434921 6.80477
RightShoulder  -4.96962e-017 0 -2.36833e-017
RightArm  -40.5153 -32.0359 75.5406
RightForeArm  45.6011 9.69343 1.55029
RightHand  -0.0953831 -4.41851 -9.41033
LeftUpLeg  -11.3278 -1.27746 3.2025
LeftLeg  13.0961 9.58501 1.5796
LeftFoot  2.17077 -0.00461334 0.405044
LeftToes  -21.1788 1.48347e-006 1.01831e-007
272
root  -11.1163 34.3381 -17.3551 -171.305 -2.53691 179.501
RightUpLeg  -10.9357 -15.2882 1.5398
RightLeg  12.2326 -2.93755 -0.440441
RightFoot  -1.28673 -0.00622151 0.149102
RightToes  -19.954 -0.0823403 -0.176452
Spine  -3.18279 -0.924421 0.941535
Spine1  -6.40502 -2.24092 2.49529
HEad  -63.7904 5.655 3.34976
LeftShoulder1  -1.94126e-019 -3.10601e-018 -2.51263e-017
LeftArm  -15.1442 27.2227 -84.0187
LeftForeArm  32.1736 -9.94946 -1.74438
LeftHand  -0.353053 -0.377039 7.19794
RightShoulder  -4.96962e-017 0 -2.36833e-017
RightArm  -44.2868 -32.2254 75.4643
RightForeArm  46.6229 9.24883 1.5168
RightHand  -0.0646863 -4.85359 -10.1606
LeftUpLeg  -10.5779 -2.71825 3.05896
LeftLeg  11.5689 11.2919 1.55219
LeftFoot  2.60569 -0.00902746 0.558482
LeftToes  -20.9882 1.48347e-006 1.01831e-007
273
root  -11.2856 34.3094 -17.3784 -171.386 -1.92989 179.748
RightUpLeg  -10.949 -15.0539 1.4441
RightLeg  12.368 -2.55581 -0.389385
RightFoot  -1.16019 -0.00466711 0.133595
RightToes  -20.4824 -0.0841641 -0.180689
Spine  -3.13502 -0.946039 1.07976
Spine1  -6.3197 -2.27135 2.76477
HEad  -64.2364 5.76553 3.60286
LeftShoulder1  -1.94126e-019 -3.10601e-018 -2.51263e-017
LeftArm  -15.7848 27.3364 -84.3853
LeftForeArm  32.0994 -9.54724 -1.67527
LeftHand  -0.363314 -0.209504 7.61177
RightShoulder  -4.96962e-017 0 -2.36833e-017
RightArm  -46.1692 -32.0243 75.2732
RightForeArm  46.6719 9.28884 1.52
RightHand  -0.0639453 -4.8135 -9.16767
LeftUpLeg  -10.4822 -2.59969 2.99263
LeftLeg  11.8916 11.7268 1.67796
LeftFoot  2.09105 -0.00103799 0.474388
LeftToes  -21.1591 1.48347e-006 1.01831e-007
274
root  -11.4392 34.2942 -17.4056 -171.617 -1.1187 179.952
RightUpLeg  -10.7808 -14.7497 1.27326
RightLeg  12.424 -2.04254 -0.31317
RightFoot  -0.979048 -0.00287755 0.11761
RightToes  -21.0486 -0.0873809 -0.185403
Spine  -2.99795 -0.822331 1.15324
Spine1  -6.05785 -1.99604 2.89203
HEad  -64.8205 5.61561 3.94165
LeftShoulder1  -1.94126e-019 -3.10601e-018 -2.51263e-017
LeftArm  -16.0229 27.4063 -84.5139
LeftForeArm  32.2367 -9.8784 -1.73237
LeftHand  -0.354921 -0.176746 7.47768
RightShoulder  -4.96962e-017 0 -2.36833e-017
RightArm  -45.0507 -31.6663 75.1832
RightForeArm  47.0809 9.80669 1.55293
RightHand  -0.0928901 -4.35409 -8.49731
LeftUpLeg  -10.1087 -2.33135 2.89859
LeftLeg  12.0503 12.1436 1.7708
LeftFoot  1.65829 0.00586304 0.401607
LeftToes  -21.0811 1.48347e-006 1.01831e-007
